<svg xmlns="http://www.w3.org/2000/svg" version="1.0" preserveAspectRatio="xMidYMid meet" viewBox="11 15.1 98.92 44.9">

<g transform="translate(0.000000,68.000000) scale(0.100000,-0.100000)" fill="#000000" stroke="none">
<path d="M210 524 c-71 -23 -100 -38 -100 -50 0 -16 21 -19 36 -5 10 10 109 41 130 41 7 0 -3 -23 -23 -52 -19 -29 -44 -72 -54 -96 -20 -47 -25 -102 -9 -102 6 0 10 8 10 18 0 9 9 36 20 60 19 41 20 42 69 42 58 0 97 13 129 42 22 21 22 21 22 1 0 -11 -7 -42 -15 -69 -18 -61 -18 -64 -1 -64 8 0 17 12 21 27 3 15 16 40 27 55 18 27 22 28 37 14 22 -20 32 -20 25 -1 -4 8 -1 22 6 30 7 9 10 18 7 21 -7 7 -23 1 -54 -22 -22 -16 -23 -15 -23 5 0 12 -6 24 -14 27 -8 3 -17 16 -20 30 -10 37 -55 54 -138 53 -40 0 -80 -3 -88 -5z m184 -24 c34 -13 33 -33 -3 -63 -30 -25 -115 -52 -132 -42 -5 4 8 31 28 61 40 56 57 63 107 44z"/>
<path d="M697 423 c2 -16 -2 -49 -10 -76 -16 -51 -6 -73 18 -41 8 11 15 22 15 25 0 3 11 19 24 37 l23 32 -5 -48 c-3 -33 0 -51 10 -59 20 -17 87 0 106 28 l16 23 6 -24 c3 -14 12 -26 20 -28 12 -2 15 11 17 53 2 68 -10 70 -55 10 -31 -42 -52 -57 -52 -36 0 5 15 29 33 53 28 36 39 43 66 41 26 -1 30 1 20 13 -15 18 -49 18 -76 -1 -28 -20 -63 -77 -63 -104 0 -12 -6 -21 -15 -21 -20 0 -19 19 4 80 11 27 15 52 10 55 -12 8 -45 -11 -65 -38 l-16 -22 5 24 c6 26 -7 51 -27 51 -8 0 -11 -11 -9 -27z"/>
<path d="M986 433 c3 -10 -4 -45 -16 -77 -24 -70 -23 -66 -7 -66 7 0 21 13 30 30 23 38 67 90 77 90 4 0 4 -19 -1 -42 -4 -24 -8 -46 -9 -50 0 -5 -5 -8 -11 -8 -22 0 -101 -63 -139 -112 -29 -36 -40 -59 -40 -84 0 -32 2 -34 32 -34 24 0 41 10 74 44 55 57 115 180 122 247 6 68 -11 80 -55 38 l-31 -31 1 33 c2 24 -3 34 -15 37 -12 2 -15 -2 -12 -15z m53 -160 c-30 -80 -109 -183 -140 -183 -47 0 -3 79 90 163 29 26 55 47 57 47 2 0 -1 -12 -7 -27z"/>
<path d="M571 404 c-37 -42 -53 -77 -45 -99 9 -23 38 -18 65 11 l24 26 5 -24 c3 -12 15 -24 25 -26 16 -2 17 -1 6 7 -12 8 -13 16 -3 49 15 48 15 52 1 52 -6 0 -30 -21 -54 -47 -54 -59 -61 -36 -8 26 28 33 41 42 60 38 15 -3 22 0 20 7 -2 6 -17 12 -34 14 -24 2 -36 -4 -62 -34z"/>
</g>
</svg>